<svg xmlns="http://www.w3.org/2000/svg" width="48" height="48" viewBox="0 0 48 48">
    <g fill="none" fill-rule="evenodd">
        <g fill-rule="nonzero">
            <g>
                <g>
                    <g>
                        <path fill="#E96C20" d="M39 48H9c-4.971 0-9-4.029-9-9V9c0-4.971 4.029-9 9-9h30c4.971 0 9 4.029 9 9v30c0 4.971-4.029 9-9 9z" opacity=".2" transform="translate(-830 -1675) translate(0 1498) translate(166 177) translate(664)"/>
                        <g>
                            <g fill="#FD907E" transform="translate(-830 -1675) translate(0 1498) translate(166 177) translate(664) translate(12 12) translate(11.001 13)">
                                <ellipse cx="6.5" cy="2" rx="6.5" ry="2"/>
                                <path d="M6.5 7.5c3.589 0 6.499-.896 6.499-2V4.233c-2.046 1.182-5.568 1.268-6.5 1.268-.931 0-4.453-.086-6.499-1.268v1.268C-.001 6.603 2.909 7.5 6.5 7.5zM6.5 9C5.568 9 2.046 8.915 0 7.732V9c0 1.104 2.91 2 6.5 2 3.589 0 6.499-.896 6.499-2V7.732C10.953 8.913 7.431 9 6.499 9z"/>
                            </g>
                            <path fill="#FB6300" d="M9.5 14.634l.043.025c.45-2.994 6.669-3.159 7.956-3.159.934 0 4.461.094 6.5 1.287V2.75C24 1.233 22.767 0 21.25 0H2.748C1.234 0 0 1.233 0 2.75v10.5c0 1.516 1.233 2.749 2.75 2.749H9.5v-1.365zM6.25 4.5h-2.5c-.414 0-.75-.336-.75-.75S3.336 3 3.75 3h2.5c.415 0 .75.336.75.75s-.335.75-.75.75zm5.75 0c1.93 0 3.5 1.57 3.5 3.5 0 1.928-1.57 3.5-3.5 3.5S8.5 9.93 8.5 8.002 10.07 4.5 12 4.5z" transform="translate(-830 -1675) translate(0 1498) translate(166 177) translate(664) translate(12 12)"/>
                        </g>
                    </g>
                </g>
            </g>
        </g>
    </g>
</svg>
