<svg xmlns="http://www.w3.org/2000/svg" width="48" height="48" viewBox="0 0 48 48">
    <g fill="none" fill-rule="evenodd">
        <g fill-rule="nonzero">
            <g>
                <g>
                    <g>
                        <path fill="#E96C20" d="M39 48H9c-4.971 0-9-4.029-9-9V9c0-4.971 4.029-9 9-9h30c4.971 0 9 4.029 9 9v30c0 4.971-4.029 9-9 9z" opacity=".2" transform="translate(-167 -1675) translate(0 1498) translate(166 177) translate(1)"/>
                        <g>
                            <path fill="#FC573B" d="M12.854 11.262c-.141-.141-.33-.219-.531-.219-.202 0-.389.078-.53.219-.292.293-.292.768 0 1.06l1.415 1.415c.283.284.778.284 1.06 0 .292-.293.292-.768 0-1.06l-1.415-1.415z" transform="translate(-167 -1675) translate(0 1498) translate(166 177) translate(1) translate(12 13)"/>
                            <path fill="#FB6300" d="M12 0h-.01c-.015 0-.029.007-.044.009-.078.003-.153.018-.225.045-.01.005-.021.006-.03.01-.086.037-.167.083-.236.149L.226 11.214c-.168.165-.244.396-.217.622C.006 11.89 0 11.941 0 12c0 6.616 5.383 12 12 12 6.616 0 12-5.384 12-12 0-6.617-5.384-12-12-12zM2.854 10.74l8.073-7.908c-.974 3.93-4.12 7.011-8.072 7.908zm10 6.533c-.147.146-.34.218-.531.218-.193 0-.385-.073-.532-.218l-1.237-1.238-1.06 1.06 1.237 1.238c.293.293.293.768 0 1.06-.147.148-.339.22-.531.22s-.384-.074-.531-.22l-1.766-1.765-.001-.002-.002-.001-1.765-1.767c-.292-.293-.292-.768 0-1.06.293-.293.768-.293 1.06 0l1.238 1.237 1.06-1.06-1.237-1.238c-.293-.293-.293-.768 0-1.06.293-.293.768-.293 1.06 0l1.768 1.767 1.767 1.766c.295.294.295.77.002 1.063zm2.475-2.476c-.44.438-1.016.659-1.592.659-.576 0-1.152-.219-1.591-.659l-1.415-1.414c-.877-.877-.877-2.304 0-3.181.848-.85 2.331-.851 3.181 0l1.415 1.414c.877.877.877 2.306.002 3.181zm3.535-3.535c-.147.147-.339.219-.531.219s-.384-.073-.531-.219l-3.005-3.006-.53.531c-.147.147-.34.219-.531.219-.193 0-.385-.074-.532-.219-.292-.293-.292-.768 0-1.06l1.06-1.06.001-.001.002-.002 1.059-1.058c.292-.293.767-.293 1.06 0 .293.292.293.768 0 1.06l-.531.531 3.005 3.006c.297.293.297.767.004 1.059z" transform="translate(-167 -1675) translate(0 1498) translate(166 177) translate(1) translate(12 13)"/>
                        </g>
                    </g>
                </g>
            </g>
        </g>
    </g>
</svg>
