<svg xmlns="http://www.w3.org/2000/svg" width="48" height="48" viewBox="0 0 48 48">
    <g fill="none" fill-rule="evenodd">
        <g fill="#E96C20" fill-rule="nonzero">
            <g>
                <g>
                    <g>
                        <path d="M39 48H9c-4.971 0-9-4.029-9-9V9c0-4.971 4.029-9 9-9h30c4.971 0 9 4.029 9 9v30c0 4.971-4.029 9-9 9z" opacity=".2" transform="translate(-830 -1755) translate(0 1498) translate(166 177) translate(664 80)"/>
                        <g>
                            <path d="M2 4C.897 4 0 3.103 0 2.001-.001.897.896 0 2 0s1.999.897 1.999 2-.897 2-2 2zM8 10c-1.103 0-2-.896-2-1.999C6 6.899 6.896 6 8 6c1.102 0 1.999.897 1.999 2 0 1.102-.897 2-2 2zM1.998 10c-.208 0-.418-.064-.598-.199-.443-.332-.531-.959-.2-1.4l6-7.999c.332-.441.957-.531 1.4-.2.442.332.53.959.199 1.4l-6 8c-.196.26-.496.399-.801.399z" transform="translate(-830 -1755) translate(0 1498) translate(166 177) translate(664 80) translate(26.001 12)"/>
                        </g>
                        <path d="M12.492 24.002c-.273.006-.492.228-.492.5v9.248c0 .138.113.25.25.25h2.372c.223 0 .42-.148.482-.362l2.212-7.799c.143-.504-.127-1.034-.62-1.212-.906-.331-2.296-.657-4.204-.625zM34 29.5c-1.999 0-6 2.532-7.999 2.532-2 0-4.251-1.532-4.251-1.532s2.694.499 4.25.499c1.555 0 1.999-.531 1.999-1.25 0-1.75-2.973-2.021-4.476-2.25-1.476-.822-2.242-1.471-4.688-1.678-.015.142-.037.284-.076.426l-2.009 7.08C19.026 34.361 22.944 36 25 36c3 0 11-4 11-5s-1-1.5-2-1.5z" transform="translate(-830 -1755) translate(0 1498) translate(166 177) translate(664 80)"/>
                    </g>
                </g>
            </g>
        </g>
    </g>
</svg>
