<svg xmlns="http://www.w3.org/2000/svg" width="48" height="48" viewBox="0 0 48 48">
    <g fill="none" fill-rule="evenodd">
        <g fill-rule="nonzero">
            <g>
                <g>
                    <g transform="translate(-166 -1755) translate(0 1498) translate(166 177) translate(0 80)">
                        <path fill="#E96C20" d="M39 48H9c-4.971 0-9-4.029-9-9V9c0-4.971 4.029-9 9-9h30c4.971 0 9 4.029 9 9v30c0 4.971-4.029 9-9 9z" opacity=".2"/>
                        <circle cx="17.5" cy="26.5" r="3" fill="#FB6300"/>
                        <path fill="#FB6300" d="M20.25 31h-5.5C13.232 31 12 32.233 12 33.75v1.5c0 .414.336.75.75.75h9.5c.413 0 .75-.336.75-.75v-1.5c0-1.517-1.233-2.75-2.75-2.75z"/>
                        <path fill="#E96C20" d="M34.25 12h-15.5c-.96 0-1.75.79-1.75 1.75v8.28c.16-.019.33-.03.499-.03 2.31 0 4.22 1.751 4.47 4.001H24v3.249c0 .33.21.62.53.72.07.02.15.03.22.03.24 0 .48-.12.62-.33L27.89 26h6.36c.96 0 1.75-.791 1.75-1.751v-10.5C36 12.79 35.21 12 34.25 12zm-8.125 6.25h.251c1.034 0 1.875.842 1.875 1.875 0 .814-.524 1.502-1.25 1.76v.364c0 .415-.335.75-.75.75-.414 0-.75-.335-.75-.75V22h-.499c-.414 0-.75-.336-.75-.75s.336-.75.75-.75h1.376c.206 0 .375-.168.375-.375s-.169-.375-.375-.375h-.251c-1.034 0-1.875-.841-1.875-1.875 0-.813.524-1.502 1.25-1.76v-.364c0-.414.335-.75.75-.75.414 0 .75.336.75.75V16h.499c.414 0 .75.337.75.75 0 .415-.336.75-.75.75h-1.376c-.206 0-.375.169-.375.375s.169.375.375.375z"/>
                    </g>
                </g>
            </g>
        </g>
    </g>
</svg>
