<svg xmlns="http://www.w3.org/2000/svg" width="48" height="48" viewBox="0 0 48 48">
    <g fill="none" fill-rule="evenodd">
        <g fill="#E96C20" fill-rule="nonzero">
            <g>
                <g>
                    <g>
                        <path fill-opacity=".12" d="M39 48H9c-4.971 0-9-4.029-9-9V9c0-4.971 4.029-9 9-9h30c4.971 0 9 4.029 9 9v30c0 4.971-4.029 9-9 9z" transform="translate(-166 -1835) translate(0 1498) translate(166 177) translate(0 160)"/>
                        <path d="M32.906 12H15.095C13.389 12 12 13.389 12 15.095v17.809C12 34.611 13.389 36 15.095 36h13.549c.266 0 .519-.105.707-.292l6.355-6.356c.189-.188.294-.442.294-.708v-13.55C36 13.39 34.611 12 32.906 12zM21.994 30.203l-.04.001c-.256 0-.504-.099-.69-.276l-5.205-4.954c-.4-.381-.416-1.015-.035-1.413.381-.401 1.014-.416 1.413-.035l4.457 4.242 8.607-9.637c.367-.412.999-.448 1.412-.08.412.368.448 1 .079 1.412L22.696 29.87c-.177.201-.43.321-.702.332zm6.648 3.385l-.02-4.944h4.963l-4.943 4.944z" transform="translate(-166 -1835) translate(0 1498) translate(166 177) translate(0 160)"/>
                    </g>
                </g>
            </g>
        </g>
    </g>
</svg>
